<svg id="Layer_1" data-name="Layer 1" xmlns="http://www.w3.org/2000/svg" viewBox="0 0 1024 1024"><defs><style>.cls-1{fill:#fff;}</style></defs><title>LipsiIcon</title><path id="Primary" class="cls-1" d="M687.67,570a1.94,1.94,0,0,0-.09.34C687.42,570.51,687.5,570.17,687.67,570ZM338.49,412.22c15.62-5.55,35.33-23.89,31.74-42.84-3.75-19.63-26.71-24.66-43-18.86-15.53,5.55-35.33,24-31.74,42.84C299.23,413,322.19,418,338.49,412.22Zm553.3,146.69a0.31,0.31,0,0,0-.09.26c-11.26,26-45.57,60.25-75.09,65.62-28.25,5.12-44.29-20.05-45.06-47-0.09-1.71-.09-3.41-0.09-5.12-19.29,25.09-59.14,58.79-98.82,72.7-41,14.42-88.92-.34-102.23-45-17.58,16.55-59.31,48.7-99.67,64.48-11.52,5-24.06,6.71-37.38,6.71H432.1c-17.49,0-27.56-7.57-33.45-20-16,51.63-29.78,98.62-31.4,119.7,1.28,21.08-24.58,40.35-40.7,35.91-24.32-6.66-15.87-40-9.64-60.81,5.55-18.35,14.85-49,25.34-83.69-14.59,14.42-31.4,26.42-48,29.41-22.19,4-37.38-9.36-44.2-28.13-12,14-26.2,28.86-40.7,35.68-15.62,7.34-33.19,12.12-49.15,6.07-16.73-6.4-26.62-22.35-30.12-40.27-6.31-32.6,2.9-68.52,10.58-100.78C150.32,524.35,161,484.24,171.32,444c4.78-18.69,9.56-37.38,14-56.15,2.22-9.73,4.52-19.37,6.4-29.1,0.43-2.39,2.13-12.54,3.5-21.33-6.57-16.81,12.8-32.34,20-36.1,44-22.87,48.81,36.86,47.62,48-8.11,77.82-72.28,270.59-73.22,295.85-0.77,20.22,31.74,3.24,56.49-14.59,1.11-25,8.11-50.43,15-74.41,4.18-14.59,9-29,14.08-43.35,2.39-6.83,4.86-13.57,7.25-20.39,0.68-2,5.63-13.48,4.44-15a20.73,20.73,0,0,1,1.54,3.41c-7.34-16.3.94-33.45,17.92-41.64,14.76-7.17,28.93-4.61,36.35,9.47,9,16.9,6.57,37.12,1.45,55.55C332.68,545.68,314.25,586.73,305,629c-3.58,16.38,27.73,1.71,52.65-17.07,20.82-69,41.47-137.39,43.95-146.94-3.58-11.09.77-22.1,11.18-31.06,13.23-11.26,30.29-11.95,38.74,2.56,3,4.18,2.82,14.34.51,28.76,15.7-23.55,37.66-44.12,62.67-49.58,39.85-8.79,65.48,31.06,65.48,70.91v0.26c0,9.81-2,3.67-2,.26,0.17,30.12-9.45,60.33-20.37,88.32,0.68-.77,1-1.54,1.63-2.3a624.4,624.4,0,0,0,55-70c15.7-22.87,32.9-48.38,41.69-75,1.62-4.86,1.13-6.14-.66-10.58a39.38,39.38,0,0,1-2.93-9c-1.88-10.5,4.51-18.43,12.53-25.6,16.38-14.59,27-9.39,31.05-6.74,7.25,4.78,11,12.54,14.84,20.22a346.75,346.75,0,0,1,28.5,83.29c5.8,27.56,8.79,57,3,85.42,27.31-21.08,39.08-56.92,46.25-77.31h0c3.07-10,6.4-19.88,9.9-29.7,2.22-6.31,4.61-12.63,6.74-18.94,0.6-1.88,5.21-12.54,4.1-14a27.06,27.06,0,0,1,1.45,3.16c-6.83-15.19.94-31.15,16.64-38.83,13.74-6.66,27-4.27,33.88,8.79,8.28,15.7,6.06,34.56,1.37,51.71-10.67,38.66-29.87,76.54-36.35,116.14-3.16,19.2,28-5.63,49.66-20.57C885.22,539.2,904.5,531.09,891.79,558.91ZM439.35,625.47c68.35,0.68,107.86-138.75,73.56-149.08-14.51-4.35-60.42,21.16-96,120.15C419.13,614.63,424.84,625.3,439.35,625.47ZM687.67,570c5.72-15.27,4.35-32.85,2-48.21-2.56-16.81-7.34-33.11-12.71-49A659.33,659.33,0,0,1,634,531.26c0.94-1.19,1.37-1.71-.17.26-6.14,7.59-2.3,2.82-.09.17-6.06,7.42-12.2,14.68-18.52,21.85-2.9,3.33-6.66,6.57-9.22,10.24-2.22,3.24-1.54,6.14-.94,10.07,2.39,15.79,11.61,27.31,27.22,29.35,22.27,2.9,46.17-11.18,55.38-33.19C687.76,569.83,687.76,569.92,687.67,570ZM858.08,361.19c14.68-5.21,33.28-22.53,29.87-40.28-3.5-18.43-25.09-23.21-40.45-17.75-14.68,5.21-33.28,22.53-29.87,40.28C821.22,361.87,842.72,366.65,858.08,361.19Z"/></svg>